# xmcd CD database file
#
# Track frame offsets:
#	150
#	2624
#	37494
#
# Disc length: 785 seconds
#
# Revision: 1
# Processed by: cddbd v1.5.2PL0 Copyright (c) Steve Scherf et al.
# Submitted via: CDex 1.79
#
DISCID=1f030f03
DTITLE=New Order - Live At The London Troxy - 10 December 2011 - Encore [CD 2)
DYEAR=2011
DGENRE=Alternative
TTITLE0=Untitled
TTITLE1=Blue Monday
TTITLE2=Love Will Tear Us Apart
EXTD=YEAR: 2011
EXTT0=
EXTT1=
EXTT2=
PLAYORDER=
